<svg width="381" height="330" viewBox="0 0 381 330" fill="none" xmlns="http://www.w3.org/2000/svg">
<rect width="381" height="330" fill="#170D8F"/>
<g clip-path="url(#clip0_31_1741)">
<path d="M155.205 234.353C155.205 234.353 145.101 239.987 162.397 241.894C183.351 244.186 194.06 243.857 217.152 239.666C217.152 239.666 223.224 243.316 231.701 246.478C179.937 267.75 114.546 245.246 155.205 234.353ZM148.88 206.594C148.88 206.594 137.546 214.638 154.856 216.354C177.239 218.568 194.916 218.75 225.504 213.102C225.504 213.102 229.735 217.215 236.388 219.464C173.8 237.012 104.089 220.848 148.88 206.594Z" fill="#5382A1"/>
<path d="M202.206 159.505C214.961 173.585 198.854 186.256 198.854 186.256C198.854 186.256 231.241 170.225 216.367 150.151C202.476 131.431 191.822 122.128 249.494 90.0582C249.494 90.0582 158.968 111.737 202.206 159.505Z" fill="#E76F00"/>
<path d="M270.669 254.885C270.669 254.885 278.147 260.793 262.433 265.363C232.554 274.042 138.071 276.663 111.824 265.709C102.39 261.774 120.083 256.312 125.648 255.166C131.453 253.959 134.77 254.184 134.77 254.184C124.277 247.096 66.9488 268.101 105.65 274.115C211.194 290.527 298.046 266.726 270.669 254.885ZM160.064 177.832C160.064 177.832 112.005 188.778 143.046 192.751C156.152 194.434 182.279 194.054 206.616 192.098C226.505 190.49 246.476 187.069 246.476 187.069C246.476 187.069 239.463 189.949 234.389 193.271C185.585 205.578 91.3048 199.853 118.447 187.264C141.401 176.625 160.064 177.832 160.064 177.832ZM246.278 224.038C295.891 199.319 272.952 175.565 256.941 178.766C253.016 179.549 251.267 180.227 251.267 180.227C251.267 180.227 252.724 178.039 255.506 177.092C287.18 166.415 311.54 208.583 245.281 225.284C245.281 225.285 246.049 224.627 246.278 224.038Z" fill="#5382A1"/>
<path d="M216.367 38.2723C216.367 38.2723 243.843 64.6267 190.308 105.15C147.378 137.658 180.519 156.192 190.29 177.369C165.231 155.691 146.841 136.607 159.179 118.846C177.287 92.773 227.453 80.1332 216.367 38.2723Z" fill="#E76F00"/>
<path d="M164.94 291.02C212.561 293.943 285.688 289.398 287.42 267.793C287.42 267.793 284.091 275.984 248.063 282.488C207.418 289.822 157.288 288.966 127.555 284.266C127.556 284.266 133.641 289.096 164.94 291.02Z" fill="#5382A1"/>
</g>
<defs>
<clipPath id="clip0_31_1741">
<rect width="196" height="254" fill="white" transform="translate(92 38)"/>
</clipPath>
</defs>
</svg>
